<mxfile host="app.diagrams.net" agent="Mozilla/5.0 (Windows NT 10.0; Win64; x64) AppleWebKit/537.36 (KHTML, like Gecko) Chrome/129.0.0.0 Safari/537.36" version="24.7.17">
  <diagram name="Page-1" id="FRMjlxH65LqtXLmiEOrE">
    <mxGraphModel dx="1687" dy="2029" grid="1" gridSize="10" guides="1" tooltips="1" connect="1" arrows="1" fold="1" page="1" pageScale="1" pageWidth="850" pageHeight="1100" math="0" shadow="0">
      <root>
        <mxCell id="0" />
        <mxCell id="1" parent="0" />
        <mxCell id="nbfr8xlKrn3ljvIZ1F1--9" style="edgeStyle=orthogonalEdgeStyle;rounded=0;orthogonalLoop=1;jettySize=auto;html=1;exitX=0.5;exitY=1;exitDx=0;exitDy=0;entryX=0.5;entryY=0;entryDx=0;entryDy=0;" edge="1" parent="1" source="66Gw3tGfQid-esu5kcbm-1" target="66Gw3tGfQid-esu5kcbm-8">
          <mxGeometry relative="1" as="geometry" />
        </mxCell>
        <mxCell id="66Gw3tGfQid-esu5kcbm-1" value="start" style="ellipse;whiteSpace=wrap;html=1;" parent="1" vertex="1">
          <mxGeometry x="100" y="-1050" width="120" height="80" as="geometry" />
        </mxCell>
        <mxCell id="66Gw3tGfQid-esu5kcbm-13" style="edgeStyle=orthogonalEdgeStyle;rounded=0;orthogonalLoop=1;jettySize=auto;html=1;exitX=0.5;exitY=1;exitDx=0;exitDy=0;entryX=0.5;entryY=0;entryDx=0;entryDy=0;" parent="1" source="66Gw3tGfQid-esu5kcbm-8" target="66Gw3tGfQid-esu5kcbm-10" edge="1">
          <mxGeometry relative="1" as="geometry" />
        </mxCell>
        <mxCell id="66Gw3tGfQid-esu5kcbm-8" value="ekipa dezura" style="rounded=1;whiteSpace=wrap;html=1;" parent="1" vertex="1">
          <mxGeometry x="100" y="-910" width="120" height="60" as="geometry" />
        </mxCell>
        <mxCell id="66Gw3tGfQid-esu5kcbm-15" style="edgeStyle=orthogonalEdgeStyle;rounded=0;orthogonalLoop=1;jettySize=auto;html=1;exitX=1;exitY=0.5;exitDx=0;exitDy=0;" parent="1" source="66Gw3tGfQid-esu5kcbm-10" edge="1">
          <mxGeometry relative="1" as="geometry">
            <mxPoint x="160" y="-820" as="targetPoint" />
          </mxGeometry>
        </mxCell>
        <mxCell id="66Gw3tGfQid-esu5kcbm-16" style="edgeStyle=orthogonalEdgeStyle;rounded=0;orthogonalLoop=1;jettySize=auto;html=1;exitX=0.5;exitY=1;exitDx=0;exitDy=0;entryX=0.5;entryY=0;entryDx=0;entryDy=0;" parent="1" source="66Gw3tGfQid-esu5kcbm-10" target="66Gw3tGfQid-esu5kcbm-11" edge="1">
          <mxGeometry relative="1" as="geometry" />
        </mxCell>
        <mxCell id="66Gw3tGfQid-esu5kcbm-10" value="da li iima poziva&lt;div&gt;za spasavanje&lt;/div&gt;" style="rhombus;whiteSpace=wrap;html=1;" parent="1" vertex="1">
          <mxGeometry x="120" y="-800" width="80" height="80" as="geometry" />
        </mxCell>
        <mxCell id="nbfr8xlKrn3ljvIZ1F1--10" style="edgeStyle=orthogonalEdgeStyle;rounded=0;orthogonalLoop=1;jettySize=auto;html=1;exitX=0.5;exitY=1;exitDx=0;exitDy=0;entryX=0.5;entryY=0;entryDx=0;entryDy=0;" edge="1" parent="1" source="66Gw3tGfQid-esu5kcbm-11" target="66Gw3tGfQid-esu5kcbm-18">
          <mxGeometry relative="1" as="geometry" />
        </mxCell>
        <mxCell id="66Gw3tGfQid-esu5kcbm-11" value="mobilizacija ekipe" style="rounded=1;whiteSpace=wrap;html=1;" parent="1" vertex="1">
          <mxGeometry x="100" y="-670" width="120" height="60" as="geometry" />
        </mxCell>
        <mxCell id="66Gw3tGfQid-esu5kcbm-31" style="edgeStyle=orthogonalEdgeStyle;rounded=0;orthogonalLoop=1;jettySize=auto;html=1;exitX=1;exitY=0.5;exitDx=0;exitDy=0;entryX=0;entryY=0.5;entryDx=0;entryDy=0;" parent="1" source="66Gw3tGfQid-esu5kcbm-17" target="66Gw3tGfQid-esu5kcbm-19" edge="1">
          <mxGeometry relative="1" as="geometry" />
        </mxCell>
        <mxCell id="66Gw3tGfQid-esu5kcbm-40" style="edgeStyle=orthogonalEdgeStyle;rounded=0;orthogonalLoop=1;jettySize=auto;html=1;exitX=0.5;exitY=1;exitDx=0;exitDy=0;entryX=0.5;entryY=0;entryDx=0;entryDy=0;" parent="1" source="66Gw3tGfQid-esu5kcbm-17" target="66Gw3tGfQid-esu5kcbm-28" edge="1">
          <mxGeometry relative="1" as="geometry" />
        </mxCell>
        <mxCell id="66Gw3tGfQid-esu5kcbm-17" value="da li je&lt;div&gt;po탑ar&lt;/div&gt;" style="rhombus;whiteSpace=wrap;html=1;" parent="1" vertex="1">
          <mxGeometry x="280" y="-560" width="80" height="80" as="geometry" />
        </mxCell>
        <mxCell id="66Gw3tGfQid-esu5kcbm-30" style="edgeStyle=orthogonalEdgeStyle;rounded=0;orthogonalLoop=1;jettySize=auto;html=1;exitX=1;exitY=0.5;exitDx=0;exitDy=0;" parent="1" source="66Gw3tGfQid-esu5kcbm-18" target="66Gw3tGfQid-esu5kcbm-17" edge="1">
          <mxGeometry relative="1" as="geometry" />
        </mxCell>
        <mxCell id="66Gw3tGfQid-esu5kcbm-18" value="provera detalja&lt;div&gt;intervencije&lt;/div&gt;" style="rounded=1;whiteSpace=wrap;html=1;" parent="1" vertex="1">
          <mxGeometry x="100" y="-550" width="120" height="60" as="geometry" />
        </mxCell>
        <mxCell id="66Gw3tGfQid-esu5kcbm-32" style="edgeStyle=orthogonalEdgeStyle;rounded=0;orthogonalLoop=1;jettySize=auto;html=1;exitX=1;exitY=0.5;exitDx=0;exitDy=0;entryX=0;entryY=0.5;entryDx=0;entryDy=0;" parent="1" source="66Gw3tGfQid-esu5kcbm-19" target="66Gw3tGfQid-esu5kcbm-20" edge="1">
          <mxGeometry relative="1" as="geometry" />
        </mxCell>
        <mxCell id="66Gw3tGfQid-esu5kcbm-41" style="edgeStyle=orthogonalEdgeStyle;rounded=0;orthogonalLoop=1;jettySize=auto;html=1;exitX=0.5;exitY=1;exitDx=0;exitDy=0;entryX=0.5;entryY=0;entryDx=0;entryDy=0;" parent="1" source="66Gw3tGfQid-esu5kcbm-19" target="66Gw3tGfQid-esu5kcbm-36" edge="1">
          <mxGeometry relative="1" as="geometry" />
        </mxCell>
        <mxCell id="66Gw3tGfQid-esu5kcbm-19" value="da li je&lt;div&gt;poplava&lt;/div&gt;" style="rhombus;whiteSpace=wrap;html=1;" parent="1" vertex="1">
          <mxGeometry x="400" y="-560" width="80" height="80" as="geometry" />
        </mxCell>
        <mxCell id="66Gw3tGfQid-esu5kcbm-33" style="edgeStyle=orthogonalEdgeStyle;rounded=0;orthogonalLoop=1;jettySize=auto;html=1;exitX=1;exitY=0.5;exitDx=0;exitDy=0;entryX=0;entryY=0.5;entryDx=0;entryDy=0;" parent="1" source="66Gw3tGfQid-esu5kcbm-20" target="66Gw3tGfQid-esu5kcbm-21" edge="1">
          <mxGeometry relative="1" as="geometry" />
        </mxCell>
        <mxCell id="66Gw3tGfQid-esu5kcbm-42" style="edgeStyle=orthogonalEdgeStyle;rounded=0;orthogonalLoop=1;jettySize=auto;html=1;exitX=0.5;exitY=1;exitDx=0;exitDy=0;entryX=0.5;entryY=0;entryDx=0;entryDy=0;" parent="1" source="66Gw3tGfQid-esu5kcbm-20" target="66Gw3tGfQid-esu5kcbm-37" edge="1">
          <mxGeometry relative="1" as="geometry" />
        </mxCell>
        <mxCell id="66Gw3tGfQid-esu5kcbm-20" value="da li je&lt;div&gt;zemljotres&lt;/div&gt;" style="rhombus;whiteSpace=wrap;html=1;" parent="1" vertex="1">
          <mxGeometry x="520" y="-560" width="80" height="80" as="geometry" />
        </mxCell>
        <mxCell id="66Gw3tGfQid-esu5kcbm-34" style="edgeStyle=orthogonalEdgeStyle;rounded=0;orthogonalLoop=1;jettySize=auto;html=1;exitX=1;exitY=0.5;exitDx=0;exitDy=0;entryX=0;entryY=0.5;entryDx=0;entryDy=0;" parent="1" source="66Gw3tGfQid-esu5kcbm-21" target="66Gw3tGfQid-esu5kcbm-22" edge="1">
          <mxGeometry relative="1" as="geometry" />
        </mxCell>
        <mxCell id="66Gw3tGfQid-esu5kcbm-43" style="edgeStyle=orthogonalEdgeStyle;rounded=0;orthogonalLoop=1;jettySize=auto;html=1;exitX=0.5;exitY=1;exitDx=0;exitDy=0;entryX=0.5;entryY=0;entryDx=0;entryDy=0;" parent="1" source="66Gw3tGfQid-esu5kcbm-21" target="66Gw3tGfQid-esu5kcbm-38" edge="1">
          <mxGeometry relative="1" as="geometry" />
        </mxCell>
        <mxCell id="66Gw3tGfQid-esu5kcbm-21" value="da li je&lt;div&gt;erupcija&lt;/div&gt;&lt;div&gt;vulkana&lt;/div&gt;" style="rhombus;whiteSpace=wrap;html=1;" parent="1" vertex="1">
          <mxGeometry x="640" y="-560" width="80" height="80" as="geometry" />
        </mxCell>
        <mxCell id="66Gw3tGfQid-esu5kcbm-35" style="edgeStyle=orthogonalEdgeStyle;rounded=0;orthogonalLoop=1;jettySize=auto;html=1;exitX=1;exitY=0.5;exitDx=0;exitDy=0;entryX=0;entryY=0.5;entryDx=0;entryDy=0;" parent="1" source="66Gw3tGfQid-esu5kcbm-22" target="66Gw3tGfQid-esu5kcbm-29" edge="1">
          <mxGeometry relative="1" as="geometry" />
        </mxCell>
        <mxCell id="66Gw3tGfQid-esu5kcbm-44" style="edgeStyle=orthogonalEdgeStyle;rounded=0;orthogonalLoop=1;jettySize=auto;html=1;exitX=0.5;exitY=1;exitDx=0;exitDy=0;entryX=0.5;entryY=0;entryDx=0;entryDy=0;" parent="1" source="66Gw3tGfQid-esu5kcbm-22" target="66Gw3tGfQid-esu5kcbm-39" edge="1">
          <mxGeometry relative="1" as="geometry" />
        </mxCell>
        <mxCell id="66Gw3tGfQid-esu5kcbm-22" value="da li je&lt;div&gt;udario&amp;nbsp;&lt;/div&gt;&lt;div&gt;meteor&lt;/div&gt;" style="rhombus;whiteSpace=wrap;html=1;" parent="1" vertex="1">
          <mxGeometry x="760" y="-560" width="80" height="80" as="geometry" />
        </mxCell>
        <mxCell id="IQwHB2YpEbQMh792aqkD-2" style="edgeStyle=orthogonalEdgeStyle;rounded=0;orthogonalLoop=1;jettySize=auto;html=1;exitX=1;exitY=0.5;exitDx=0;exitDy=0;" parent="1" source="66Gw3tGfQid-esu5kcbm-28" edge="1">
          <mxGeometry relative="1" as="geometry">
            <mxPoint x="380" y="-520" as="targetPoint" />
          </mxGeometry>
        </mxCell>
        <mxCell id="66Gw3tGfQid-esu5kcbm-28" value="uraditi sastanak o pojedina훾nosti zadatka" style="rounded=1;whiteSpace=wrap;html=1;" parent="1" vertex="1">
          <mxGeometry x="280" y="-440" width="80" height="80" as="geometry" />
        </mxCell>
        <mxCell id="66Gw3tGfQid-esu5kcbm-46" style="edgeStyle=orthogonalEdgeStyle;rounded=0;orthogonalLoop=1;jettySize=auto;html=1;exitX=0.5;exitY=1;exitDx=0;exitDy=0;entryX=1;entryY=0.5;entryDx=0;entryDy=0;" parent="1" source="66Gw3tGfQid-esu5kcbm-29" target="66Gw3tGfQid-esu5kcbm-45" edge="1">
          <mxGeometry relative="1" as="geometry" />
        </mxCell>
        <mxCell id="66Gw3tGfQid-esu5kcbm-29" value="obavestiti ekipu da&lt;div&gt;o훾ekuju&amp;nbsp;&lt;/div&gt;&lt;div&gt;neo훾ekivano&lt;/div&gt;" style="rounded=1;whiteSpace=wrap;html=1;" parent="1" vertex="1">
          <mxGeometry x="880" y="-550" width="120" height="60" as="geometry" />
        </mxCell>
        <mxCell id="IQwHB2YpEbQMh792aqkD-3" style="edgeStyle=orthogonalEdgeStyle;rounded=0;orthogonalLoop=1;jettySize=auto;html=1;exitX=1;exitY=0.5;exitDx=0;exitDy=0;" parent="1" source="66Gw3tGfQid-esu5kcbm-36" edge="1">
          <mxGeometry relative="1" as="geometry">
            <mxPoint x="500" y="-520" as="targetPoint" />
          </mxGeometry>
        </mxCell>
        <mxCell id="66Gw3tGfQid-esu5kcbm-36" value="uraditi sastanak o pojedina훾nosti zadatka" style="rounded=1;whiteSpace=wrap;html=1;" parent="1" vertex="1">
          <mxGeometry x="400" y="-440" width="80" height="80" as="geometry" />
        </mxCell>
        <mxCell id="IQwHB2YpEbQMh792aqkD-4" style="edgeStyle=orthogonalEdgeStyle;rounded=0;orthogonalLoop=1;jettySize=auto;html=1;exitX=1;exitY=0.5;exitDx=0;exitDy=0;" parent="1" source="66Gw3tGfQid-esu5kcbm-37" edge="1">
          <mxGeometry relative="1" as="geometry">
            <mxPoint x="620" y="-520" as="targetPoint" />
          </mxGeometry>
        </mxCell>
        <mxCell id="66Gw3tGfQid-esu5kcbm-37" value="uraditi sastanak o pojedina훾nosti zadatka" style="rounded=1;whiteSpace=wrap;html=1;" parent="1" vertex="1">
          <mxGeometry x="520" y="-440" width="80" height="80" as="geometry" />
        </mxCell>
        <mxCell id="IQwHB2YpEbQMh792aqkD-5" style="edgeStyle=orthogonalEdgeStyle;rounded=0;orthogonalLoop=1;jettySize=auto;html=1;exitX=1;exitY=0.5;exitDx=0;exitDy=0;" parent="1" source="66Gw3tGfQid-esu5kcbm-38" edge="1">
          <mxGeometry relative="1" as="geometry">
            <mxPoint x="740" y="-520" as="targetPoint" />
          </mxGeometry>
        </mxCell>
        <mxCell id="66Gw3tGfQid-esu5kcbm-38" value="uraditi sastanak o pojedina훾nosti zadatka" style="rounded=1;whiteSpace=wrap;html=1;" parent="1" vertex="1">
          <mxGeometry x="640" y="-440" width="80" height="80" as="geometry" />
        </mxCell>
        <mxCell id="IQwHB2YpEbQMh792aqkD-6" style="edgeStyle=orthogonalEdgeStyle;rounded=0;orthogonalLoop=1;jettySize=auto;html=1;exitX=1;exitY=0.5;exitDx=0;exitDy=0;" parent="1" source="66Gw3tGfQid-esu5kcbm-39" edge="1">
          <mxGeometry relative="1" as="geometry">
            <mxPoint x="860" y="-520" as="targetPoint" />
          </mxGeometry>
        </mxCell>
        <mxCell id="66Gw3tGfQid-esu5kcbm-39" value="uraditi sastanak o pojedina훾nosti zadatka" style="rounded=1;whiteSpace=wrap;html=1;" parent="1" vertex="1">
          <mxGeometry x="760" y="-440" width="80" height="80" as="geometry" />
        </mxCell>
        <mxCell id="IQwHB2YpEbQMh792aqkD-8" style="edgeStyle=orthogonalEdgeStyle;rounded=0;orthogonalLoop=1;jettySize=auto;html=1;exitX=0.5;exitY=1;exitDx=0;exitDy=0;entryX=0.5;entryY=0;entryDx=0;entryDy=0;" parent="1" source="66Gw3tGfQid-esu5kcbm-45" edge="1">
          <mxGeometry relative="1" as="geometry">
            <mxPoint x="160" y="-220" as="targetPoint" />
          </mxGeometry>
        </mxCell>
        <mxCell id="66Gw3tGfQid-esu5kcbm-45" value="ekipa obave큄tena&lt;div&gt;o zadatku&lt;/div&gt;" style="rounded=1;whiteSpace=wrap;html=1;" parent="1" vertex="1">
          <mxGeometry x="100" y="-310" width="120" height="60" as="geometry" />
        </mxCell>
        <mxCell id="IQwHB2YpEbQMh792aqkD-67" style="edgeStyle=orthogonalEdgeStyle;rounded=0;orthogonalLoop=1;jettySize=auto;html=1;exitX=1;exitY=0.5;exitDx=0;exitDy=0;fillColor=#f8cecc;strokeColor=#b85450;" parent="1" source="IQwHB2YpEbQMh792aqkD-9" edge="1">
          <mxGeometry relative="1" as="geometry">
            <mxPoint x="160" y="-130" as="targetPoint" />
          </mxGeometry>
        </mxCell>
        <mxCell id="IQwHB2YpEbQMh792aqkD-9" value="훾lan ekipe&lt;div&gt;1, 2,..n&lt;/div&gt;&lt;div&gt;ima opremu&lt;/div&gt;" style="rhombus;whiteSpace=wrap;html=1;" parent="1" vertex="1">
          <mxGeometry x="100" y="-110" width="110" height="110" as="geometry" />
        </mxCell>
        <mxCell id="IQwHB2YpEbQMh792aqkD-46" style="edgeStyle=orthogonalEdgeStyle;rounded=0;orthogonalLoop=1;jettySize=auto;html=1;exitX=1;exitY=0.5;exitDx=0;exitDy=0;" parent="1" source="IQwHB2YpEbQMh792aqkD-10" target="IQwHB2YpEbQMh792aqkD-11" edge="1">
          <mxGeometry relative="1" as="geometry" />
        </mxCell>
        <mxCell id="IQwHB2YpEbQMh792aqkD-10" value="oprema ispravna" style="shape=document;whiteSpace=wrap;html=1;boundedLbl=1;" parent="1" vertex="1">
          <mxGeometry x="1510" y="-590" width="120" height="80" as="geometry" />
        </mxCell>
        <mxCell id="IQwHB2YpEbQMh792aqkD-33" style="edgeStyle=orthogonalEdgeStyle;rounded=0;orthogonalLoop=1;jettySize=auto;html=1;exitX=0.5;exitY=1;exitDx=0;exitDy=0;entryX=0.5;entryY=0;entryDx=0;entryDy=0;" parent="1" source="IQwHB2YpEbQMh792aqkD-11" target="IQwHB2YpEbQMh792aqkD-13" edge="1">
          <mxGeometry relative="1" as="geometry" />
        </mxCell>
        <mxCell id="IQwHB2YpEbQMh792aqkD-43" style="edgeStyle=orthogonalEdgeStyle;rounded=0;orthogonalLoop=1;jettySize=auto;html=1;exitX=1;exitY=0.5;exitDx=0;exitDy=0;entryX=0;entryY=0.5;entryDx=0;entryDy=0;fillColor=#f8cecc;strokeColor=#b85450;" parent="1" source="IQwHB2YpEbQMh792aqkD-11" target="IQwHB2YpEbQMh792aqkD-12" edge="1">
          <mxGeometry relative="1" as="geometry" />
        </mxCell>
        <mxCell id="IQwHB2YpEbQMh792aqkD-11" value="oprema na&amp;nbsp;&lt;div&gt;stanju&lt;/div&gt;" style="rhombus;whiteSpace=wrap;html=1;" parent="1" vertex="1">
          <mxGeometry x="1520" y="-475" width="100" height="100" as="geometry" />
        </mxCell>
        <mxCell id="IQwHB2YpEbQMh792aqkD-45" style="edgeStyle=orthogonalEdgeStyle;rounded=0;orthogonalLoop=1;jettySize=auto;html=1;exitX=0.5;exitY=1;exitDx=0;exitDy=0;" parent="1" source="IQwHB2YpEbQMh792aqkD-12" edge="1">
          <mxGeometry relative="1" as="geometry">
            <mxPoint x="1730" y="-360" as="targetPoint" />
            <Array as="points">
              <mxPoint x="1830" y="-395" />
              <mxPoint x="1830" y="-375" />
              <mxPoint x="1730" y="-375" />
            </Array>
          </mxGeometry>
        </mxCell>
        <mxCell id="IQwHB2YpEbQMh792aqkD-12" value="nabavka nove opreme" style="rounded=1;whiteSpace=wrap;html=1;fillColor=#f8cecc;strokeColor=#b85450;" parent="1" vertex="1">
          <mxGeometry x="1830" y="-455" width="120" height="60" as="geometry" />
        </mxCell>
        <mxCell id="IQwHB2YpEbQMh792aqkD-42" style="edgeStyle=orthogonalEdgeStyle;rounded=0;orthogonalLoop=1;jettySize=auto;html=1;exitX=1;exitY=0.5;exitDx=0;exitDy=0;entryX=0;entryY=0.5;entryDx=0;entryDy=0;" parent="1" source="IQwHB2YpEbQMh792aqkD-13" target="IQwHB2YpEbQMh792aqkD-14" edge="1">
          <mxGeometry relative="1" as="geometry" />
        </mxCell>
        <mxCell id="IQwHB2YpEbQMh792aqkD-55" style="edgeStyle=orthogonalEdgeStyle;rounded=0;orthogonalLoop=1;jettySize=auto;html=1;exitX=0.5;exitY=1;exitDx=0;exitDy=0;entryX=0.5;entryY=0;entryDx=0;entryDy=0;" parent="1" source="IQwHB2YpEbQMh792aqkD-13" target="IQwHB2YpEbQMh792aqkD-49" edge="1">
          <mxGeometry relative="1" as="geometry" />
        </mxCell>
        <mxCell id="IQwHB2YpEbQMh792aqkD-13" value="oprema&amp;nbsp;&lt;div&gt;ispravna&lt;/div&gt;" style="rhombus;whiteSpace=wrap;html=1;" parent="1" vertex="1">
          <mxGeometry x="1520" y="-340" width="100" height="100" as="geometry" />
        </mxCell>
        <mxCell id="IQwHB2YpEbQMh792aqkD-41" style="edgeStyle=orthogonalEdgeStyle;rounded=0;orthogonalLoop=1;jettySize=auto;html=1;exitX=1;exitY=0.5;exitDx=0;exitDy=0;entryX=0;entryY=0.5;entryDx=0;entryDy=0;" parent="1" source="IQwHB2YpEbQMh792aqkD-14" target="IQwHB2YpEbQMh792aqkD-15" edge="1">
          <mxGeometry relative="1" as="geometry" />
        </mxCell>
        <mxCell id="IQwHB2YpEbQMh792aqkD-14" value="servis opreme" style="rounded=1;whiteSpace=wrap;html=1;" parent="1" vertex="1">
          <mxGeometry x="1660" y="-320" width="120" height="60" as="geometry" />
        </mxCell>
        <mxCell id="IQwHB2YpEbQMh792aqkD-20" style="edgeStyle=orthogonalEdgeStyle;rounded=0;orthogonalLoop=1;jettySize=auto;html=1;exitX=0.5;exitY=1;exitDx=0;exitDy=0;entryX=0.5;entryY=0;entryDx=0;entryDy=0;" parent="1" source="IQwHB2YpEbQMh792aqkD-15" target="IQwHB2YpEbQMh792aqkD-19" edge="1">
          <mxGeometry relative="1" as="geometry" />
        </mxCell>
        <mxCell id="IQwHB2YpEbQMh792aqkD-40" style="edgeStyle=orthogonalEdgeStyle;rounded=0;orthogonalLoop=1;jettySize=auto;html=1;exitX=0.5;exitY=0;exitDx=0;exitDy=0;fillColor=#f8cecc;strokeColor=#b85450;" parent="1" source="IQwHB2YpEbQMh792aqkD-15" edge="1">
          <mxGeometry relative="1" as="geometry">
            <mxPoint x="1890" y="-390" as="targetPoint" />
          </mxGeometry>
        </mxCell>
        <mxCell id="IQwHB2YpEbQMh792aqkD-15" value="da li je mogu훶&lt;div&gt;servis&lt;/div&gt;" style="rhombus;whiteSpace=wrap;html=1;" parent="1" vertex="1">
          <mxGeometry x="1850" y="-330" width="80" height="80" as="geometry" />
        </mxCell>
        <mxCell id="IQwHB2YpEbQMh792aqkD-22" style="edgeStyle=orthogonalEdgeStyle;rounded=0;orthogonalLoop=1;jettySize=auto;html=1;exitX=0.5;exitY=1;exitDx=0;exitDy=0;entryX=0.5;entryY=0;entryDx=0;entryDy=0;" parent="1" source="IQwHB2YpEbQMh792aqkD-16" target="IQwHB2YpEbQMh792aqkD-17" edge="1">
          <mxGeometry relative="1" as="geometry" />
        </mxCell>
        <mxCell id="IQwHB2YpEbQMh792aqkD-31" style="edgeStyle=orthogonalEdgeStyle;rounded=0;orthogonalLoop=1;jettySize=auto;html=1;exitX=1;exitY=0.5;exitDx=0;exitDy=0;" parent="1" source="IQwHB2YpEbQMh792aqkD-16" target="IQwHB2YpEbQMh792aqkD-27" edge="1">
          <mxGeometry relative="1" as="geometry" />
        </mxCell>
        <mxCell id="IQwHB2YpEbQMh792aqkD-16" value="da li je treba zamena gumica" style="rhombus;whiteSpace=wrap;html=1;" parent="1" vertex="1">
          <mxGeometry x="1850" y="-120" width="80" height="80" as="geometry" />
        </mxCell>
        <mxCell id="IQwHB2YpEbQMh792aqkD-23" style="edgeStyle=orthogonalEdgeStyle;rounded=0;orthogonalLoop=1;jettySize=auto;html=1;exitX=0.5;exitY=1;exitDx=0;exitDy=0;entryX=0.5;entryY=0;entryDx=0;entryDy=0;" parent="1" source="IQwHB2YpEbQMh792aqkD-17" target="IQwHB2YpEbQMh792aqkD-18" edge="1">
          <mxGeometry relative="1" as="geometry" />
        </mxCell>
        <mxCell id="IQwHB2YpEbQMh792aqkD-30" style="edgeStyle=orthogonalEdgeStyle;rounded=0;orthogonalLoop=1;jettySize=auto;html=1;exitX=1;exitY=0.5;exitDx=0;exitDy=0;entryX=0;entryY=0.5;entryDx=0;entryDy=0;" parent="1" source="IQwHB2YpEbQMh792aqkD-17" target="IQwHB2YpEbQMh792aqkD-26" edge="1">
          <mxGeometry relative="1" as="geometry" />
        </mxCell>
        <mxCell id="IQwHB2YpEbQMh792aqkD-17" value="da li je treba zamena&lt;div&gt;opruge&lt;/div&gt;" style="rhombus;whiteSpace=wrap;html=1;" parent="1" vertex="1">
          <mxGeometry x="1850" y="-20" width="80" height="80" as="geometry" />
        </mxCell>
        <mxCell id="IQwHB2YpEbQMh792aqkD-29" style="edgeStyle=orthogonalEdgeStyle;rounded=0;orthogonalLoop=1;jettySize=auto;html=1;exitX=1;exitY=0.5;exitDx=0;exitDy=0;entryX=0;entryY=0.5;entryDx=0;entryDy=0;" parent="1" source="IQwHB2YpEbQMh792aqkD-18" target="IQwHB2YpEbQMh792aqkD-28" edge="1">
          <mxGeometry relative="1" as="geometry" />
        </mxCell>
        <mxCell id="IQwHB2YpEbQMh792aqkD-34" style="edgeStyle=orthogonalEdgeStyle;rounded=0;orthogonalLoop=1;jettySize=auto;html=1;exitX=0.5;exitY=1;exitDx=0;exitDy=0;" parent="1" source="IQwHB2YpEbQMh792aqkD-18" edge="1">
          <mxGeometry relative="1" as="geometry">
            <mxPoint x="1570" y="-360" as="targetPoint" />
            <Array as="points">
              <mxPoint x="1890" y="190" />
              <mxPoint x="2130" y="190" />
              <mxPoint x="2130" y="-360" />
              <mxPoint x="1570" y="-360" />
            </Array>
          </mxGeometry>
        </mxCell>
        <mxCell id="IQwHB2YpEbQMh792aqkD-18" value="da li je treba&amp;nbsp;&lt;div&gt;X + n&lt;/div&gt;&lt;div&gt;deo&lt;/div&gt;" style="rhombus;whiteSpace=wrap;html=1;" parent="1" vertex="1">
          <mxGeometry x="1850" y="90" width="80" height="80" as="geometry" />
        </mxCell>
        <mxCell id="IQwHB2YpEbQMh792aqkD-21" style="edgeStyle=orthogonalEdgeStyle;rounded=0;orthogonalLoop=1;jettySize=auto;html=1;exitX=0.5;exitY=1;exitDx=0;exitDy=0;entryX=0.5;entryY=0;entryDx=0;entryDy=0;" parent="1" source="IQwHB2YpEbQMh792aqkD-19" target="IQwHB2YpEbQMh792aqkD-16" edge="1">
          <mxGeometry relative="1" as="geometry" />
        </mxCell>
        <mxCell id="IQwHB2YpEbQMh792aqkD-32" style="edgeStyle=orthogonalEdgeStyle;rounded=0;orthogonalLoop=1;jettySize=auto;html=1;exitX=1;exitY=0.5;exitDx=0;exitDy=0;entryX=0;entryY=0.5;entryDx=0;entryDy=0;" parent="1" source="IQwHB2YpEbQMh792aqkD-19" target="IQwHB2YpEbQMh792aqkD-24" edge="1">
          <mxGeometry relative="1" as="geometry" />
        </mxCell>
        <mxCell id="IQwHB2YpEbQMh792aqkD-19" value="da li je treba&amp;nbsp;&lt;div&gt;훾i큄훶enje&lt;/div&gt;" style="rhombus;whiteSpace=wrap;html=1;" parent="1" vertex="1">
          <mxGeometry x="1850" y="-220" width="80" height="80" as="geometry" />
        </mxCell>
        <mxCell id="IQwHB2YpEbQMh792aqkD-39" style="edgeStyle=orthogonalEdgeStyle;rounded=0;orthogonalLoop=1;jettySize=auto;html=1;exitX=1;exitY=0.5;exitDx=0;exitDy=0;" parent="1" source="IQwHB2YpEbQMh792aqkD-24" edge="1">
          <mxGeometry relative="1" as="geometry">
            <mxPoint x="2130" y="-180" as="targetPoint" />
          </mxGeometry>
        </mxCell>
        <mxCell id="IQwHB2YpEbQMh792aqkD-24" value="o훾istiti" style="rounded=1;whiteSpace=wrap;html=1;" parent="1" vertex="1">
          <mxGeometry x="1970" y="-200" width="80" height="40" as="geometry" />
        </mxCell>
        <mxCell id="IQwHB2YpEbQMh792aqkD-36" style="edgeStyle=orthogonalEdgeStyle;rounded=0;orthogonalLoop=1;jettySize=auto;html=1;exitX=1;exitY=0.5;exitDx=0;exitDy=0;" parent="1" source="IQwHB2YpEbQMh792aqkD-26" edge="1">
          <mxGeometry relative="1" as="geometry">
            <mxPoint x="2130" y="20" as="targetPoint" />
          </mxGeometry>
        </mxCell>
        <mxCell id="IQwHB2YpEbQMh792aqkD-26" value="zamena opruge" style="rounded=1;whiteSpace=wrap;html=1;" parent="1" vertex="1">
          <mxGeometry x="1970" width="80" height="40" as="geometry" />
        </mxCell>
        <mxCell id="IQwHB2YpEbQMh792aqkD-37" style="edgeStyle=orthogonalEdgeStyle;rounded=0;orthogonalLoop=1;jettySize=auto;html=1;exitX=1;exitY=0.5;exitDx=0;exitDy=0;" parent="1" source="IQwHB2YpEbQMh792aqkD-27" edge="1">
          <mxGeometry relative="1" as="geometry">
            <mxPoint x="2130" y="-80" as="targetPoint" />
          </mxGeometry>
        </mxCell>
        <mxCell id="IQwHB2YpEbQMh792aqkD-27" value="zamena gumice" style="rounded=1;whiteSpace=wrap;html=1;" parent="1" vertex="1">
          <mxGeometry x="1970" y="-100" width="80" height="40" as="geometry" />
        </mxCell>
        <mxCell id="IQwHB2YpEbQMh792aqkD-35" style="edgeStyle=orthogonalEdgeStyle;rounded=0;orthogonalLoop=1;jettySize=auto;html=1;exitX=1;exitY=0.5;exitDx=0;exitDy=0;" parent="1" source="IQwHB2YpEbQMh792aqkD-28" edge="1">
          <mxGeometry relative="1" as="geometry">
            <mxPoint x="2130" y="130" as="targetPoint" />
          </mxGeometry>
        </mxCell>
        <mxCell id="IQwHB2YpEbQMh792aqkD-28" value="zamena X + n dela" style="rounded=1;whiteSpace=wrap;html=1;" parent="1" vertex="1">
          <mxGeometry x="1970" y="110" width="80" height="40" as="geometry" />
        </mxCell>
        <mxCell id="IQwHB2YpEbQMh792aqkD-47" value="oprema spremna" style="ellipse;whiteSpace=wrap;html=1;" parent="1" vertex="1">
          <mxGeometry x="1510" y="220" width="120" height="80" as="geometry" />
        </mxCell>
        <mxCell id="IQwHB2YpEbQMh792aqkD-54" style="edgeStyle=orthogonalEdgeStyle;rounded=0;orthogonalLoop=1;jettySize=auto;html=1;exitX=1;exitY=0.5;exitDx=0;exitDy=0;entryX=0;entryY=0.5;entryDx=0;entryDy=0;fillColor=#f8cecc;strokeColor=#b85450;" parent="1" source="IQwHB2YpEbQMh792aqkD-49" target="IQwHB2YpEbQMh792aqkD-50" edge="1">
          <mxGeometry relative="1" as="geometry" />
        </mxCell>
        <mxCell id="IQwHB2YpEbQMh792aqkD-58" style="edgeStyle=orthogonalEdgeStyle;rounded=0;orthogonalLoop=1;jettySize=auto;html=1;exitX=0.5;exitY=1;exitDx=0;exitDy=0;entryX=0.5;entryY=0;entryDx=0;entryDy=0;fillColor=#d5e8d4;strokeColor=#82b366;" parent="1" source="IQwHB2YpEbQMh792aqkD-49" target="IQwHB2YpEbQMh792aqkD-47" edge="1">
          <mxGeometry relative="1" as="geometry" />
        </mxCell>
        <mxCell id="IQwHB2YpEbQMh792aqkD-49" value="oprema atestirana" style="rhombus;whiteSpace=wrap;html=1;" parent="1" vertex="1">
          <mxGeometry x="1520" y="-200" width="100" height="100" as="geometry" />
        </mxCell>
        <mxCell id="IQwHB2YpEbQMh792aqkD-56" style="edgeStyle=orthogonalEdgeStyle;rounded=0;orthogonalLoop=1;jettySize=auto;html=1;exitX=0.5;exitY=1;exitDx=0;exitDy=0;entryX=0.5;entryY=0;entryDx=0;entryDy=0;fillColor=#d5e8d4;strokeColor=#82b366;" parent="1" source="IQwHB2YpEbQMh792aqkD-50" target="IQwHB2YpEbQMh792aqkD-51" edge="1">
          <mxGeometry relative="1" as="geometry" />
        </mxCell>
        <mxCell id="IQwHB2YpEbQMh792aqkD-63" style="edgeStyle=orthogonalEdgeStyle;rounded=0;orthogonalLoop=1;jettySize=auto;html=1;exitX=1;exitY=0.5;exitDx=0;exitDy=0;fillColor=#f8cecc;strokeColor=#b85450;" parent="1" source="IQwHB2YpEbQMh792aqkD-50" edge="1">
          <mxGeometry relative="1" as="geometry">
            <mxPoint x="1790" y="-150" as="targetPoint" />
          </mxGeometry>
        </mxCell>
        <mxCell id="IQwHB2YpEbQMh792aqkD-50" value="protivpo탑arna&lt;div&gt;za큄tita&lt;/div&gt;" style="rhombus;whiteSpace=wrap;html=1;" parent="1" vertex="1">
          <mxGeometry x="1670" y="-200" width="100" height="100" as="geometry" />
        </mxCell>
        <mxCell id="IQwHB2YpEbQMh792aqkD-57" style="edgeStyle=orthogonalEdgeStyle;rounded=0;orthogonalLoop=1;jettySize=auto;html=1;exitX=0.5;exitY=1;exitDx=0;exitDy=0;entryX=0.5;entryY=0;entryDx=0;entryDy=0;fillColor=#d5e8d4;strokeColor=#82b366;" parent="1" source="IQwHB2YpEbQMh792aqkD-51" target="IQwHB2YpEbQMh792aqkD-53" edge="1">
          <mxGeometry relative="1" as="geometry" />
        </mxCell>
        <mxCell id="IQwHB2YpEbQMh792aqkD-62" style="edgeStyle=orthogonalEdgeStyle;rounded=0;orthogonalLoop=1;jettySize=auto;html=1;exitX=1;exitY=0.5;exitDx=0;exitDy=0;fillColor=#f8cecc;strokeColor=#b85450;" parent="1" source="IQwHB2YpEbQMh792aqkD-51" edge="1">
          <mxGeometry relative="1" as="geometry">
            <mxPoint x="1790" y="-10" as="targetPoint" />
          </mxGeometry>
        </mxCell>
        <mxCell id="IQwHB2YpEbQMh792aqkD-51" value="vodonepropusna&lt;div&gt;za큄tita&lt;/div&gt;" style="rhombus;whiteSpace=wrap;html=1;" parent="1" vertex="1">
          <mxGeometry x="1670" y="-60" width="100" height="100" as="geometry" />
        </mxCell>
        <mxCell id="IQwHB2YpEbQMh792aqkD-59" style="edgeStyle=orthogonalEdgeStyle;rounded=0;orthogonalLoop=1;jettySize=auto;html=1;exitX=0;exitY=0.5;exitDx=0;exitDy=0;fillColor=#d5e8d4;strokeColor=#82b366;" parent="1" source="IQwHB2YpEbQMh792aqkD-53" edge="1">
          <mxGeometry relative="1" as="geometry">
            <mxPoint x="1570" y="130" as="targetPoint" />
          </mxGeometry>
        </mxCell>
        <mxCell id="IQwHB2YpEbQMh792aqkD-60" style="edgeStyle=orthogonalEdgeStyle;rounded=0;orthogonalLoop=1;jettySize=auto;html=1;exitX=1;exitY=0.5;exitDx=0;exitDy=0;fillColor=#f8cecc;strokeColor=#b85450;" parent="1" source="IQwHB2YpEbQMh792aqkD-53" edge="1">
          <mxGeometry relative="1" as="geometry">
            <mxPoint x="1570" y="-220" as="targetPoint" />
            <Array as="points">
              <mxPoint x="1790" y="130" />
              <mxPoint x="1790" y="-220" />
            </Array>
          </mxGeometry>
        </mxCell>
        <mxCell id="IQwHB2YpEbQMh792aqkD-53" value="antistatik&lt;div&gt;za큄tita&lt;/div&gt;" style="rhombus;whiteSpace=wrap;html=1;" parent="1" vertex="1">
          <mxGeometry x="1670" y="80" width="100" height="100" as="geometry" />
        </mxCell>
        <mxCell id="IQwHB2YpEbQMh792aqkD-66" style="edgeStyle=orthogonalEdgeStyle;rounded=0;orthogonalLoop=1;jettySize=auto;html=1;exitX=0.5;exitY=0.888;exitDx=0;exitDy=0;entryX=0.5;entryY=0;entryDx=0;entryDy=0;exitPerimeter=0;" parent="1" source="IQwHB2YpEbQMh792aqkD-65" target="IQwHB2YpEbQMh792aqkD-9" edge="1">
          <mxGeometry relative="1" as="geometry" />
        </mxCell>
        <mxCell id="IQwHB2YpEbQMh792aqkD-65" value="oprema ispravna" style="shape=document;whiteSpace=wrap;html=1;boundedLbl=1;" parent="1" vertex="1">
          <mxGeometry x="100" y="-220" width="120" height="80" as="geometry" />
        </mxCell>
        <mxCell id="IQwHB2YpEbQMh792aqkD-80" style="edgeStyle=orthogonalEdgeStyle;rounded=0;orthogonalLoop=1;jettySize=auto;html=1;exitX=1;exitY=0.5;exitDx=0;exitDy=0;entryX=0;entryY=0.5;entryDx=0;entryDy=0;" parent="1" source="IQwHB2YpEbQMh792aqkD-68" target="IQwHB2YpEbQMh792aqkD-70" edge="1">
          <mxGeometry relative="1" as="geometry" />
        </mxCell>
        <mxCell id="IQwHB2YpEbQMh792aqkD-68" value="provera kamiona" style="shape=document;whiteSpace=wrap;html=1;boundedLbl=1;" parent="1" vertex="1">
          <mxGeometry x="2930" y="-590" width="120" height="80" as="geometry" />
        </mxCell>
        <mxCell id="IQwHB2YpEbQMh792aqkD-81" style="edgeStyle=orthogonalEdgeStyle;rounded=0;orthogonalLoop=1;jettySize=auto;html=1;exitX=1;exitY=0.5;exitDx=0;exitDy=0;entryX=0;entryY=0.5;entryDx=0;entryDy=0;" parent="1" source="IQwHB2YpEbQMh792aqkD-70" target="IQwHB2YpEbQMh792aqkD-71" edge="1">
          <mxGeometry relative="1" as="geometry" />
        </mxCell>
        <mxCell id="IQwHB2YpEbQMh792aqkD-70" value="da li je&lt;div&gt;potreban&lt;/div&gt;&lt;div&gt;vatrogasni&lt;/div&gt;&lt;div&gt;kamion&lt;/div&gt;" style="rhombus;whiteSpace=wrap;html=1;" parent="1" vertex="1">
          <mxGeometry x="3130" y="-605" width="110" height="110" as="geometry" />
        </mxCell>
        <mxCell id="IQwHB2YpEbQMh792aqkD-82" style="edgeStyle=orthogonalEdgeStyle;rounded=0;orthogonalLoop=1;jettySize=auto;html=1;exitX=1;exitY=0.5;exitDx=0;exitDy=0;entryX=0;entryY=0.5;entryDx=0;entryDy=0;" parent="1" source="IQwHB2YpEbQMh792aqkD-71" target="IQwHB2YpEbQMh792aqkD-72" edge="1">
          <mxGeometry relative="1" as="geometry" />
        </mxCell>
        <mxCell id="IQwHB2YpEbQMh792aqkD-93" style="edgeStyle=orthogonalEdgeStyle;rounded=0;orthogonalLoop=1;jettySize=auto;html=1;exitX=0.5;exitY=1;exitDx=0;exitDy=0;entryX=0.5;entryY=0;entryDx=0;entryDy=0;" parent="1" source="IQwHB2YpEbQMh792aqkD-71" target="IQwHB2YpEbQMh792aqkD-90" edge="1">
          <mxGeometry relative="1" as="geometry" />
        </mxCell>
        <mxCell id="IQwHB2YpEbQMh792aqkD-71" value="da li ima goriva" style="rhombus;whiteSpace=wrap;html=1;" parent="1" vertex="1">
          <mxGeometry x="3295" y="-600" width="100" height="100" as="geometry" />
        </mxCell>
        <mxCell id="IQwHB2YpEbQMh792aqkD-83" style="edgeStyle=orthogonalEdgeStyle;rounded=0;orthogonalLoop=1;jettySize=auto;html=1;exitX=1;exitY=0.5;exitDx=0;exitDy=0;entryX=0;entryY=0.5;entryDx=0;entryDy=0;" parent="1" source="IQwHB2YpEbQMh792aqkD-72" edge="1">
          <mxGeometry relative="1" as="geometry">
            <mxPoint x="3576" y="-550" as="targetPoint" />
          </mxGeometry>
        </mxCell>
        <mxCell id="nbfr8xlKrn3ljvIZ1F1--4" style="edgeStyle=orthogonalEdgeStyle;rounded=0;orthogonalLoop=1;jettySize=auto;html=1;exitX=0.5;exitY=1;exitDx=0;exitDy=0;entryX=0.5;entryY=0;entryDx=0;entryDy=0;" edge="1" parent="1" source="IQwHB2YpEbQMh792aqkD-72" target="IQwHB2YpEbQMh792aqkD-91">
          <mxGeometry relative="1" as="geometry" />
        </mxCell>
        <mxCell id="IQwHB2YpEbQMh792aqkD-72" value="da li ima&amp;nbsp;&lt;div&gt;ulja u motoru&lt;/div&gt;" style="rhombus;whiteSpace=wrap;html=1;" parent="1" vertex="1">
          <mxGeometry x="3435" y="-600" width="100" height="100" as="geometry" />
        </mxCell>
        <mxCell id="IQwHB2YpEbQMh792aqkD-85" style="edgeStyle=orthogonalEdgeStyle;rounded=0;orthogonalLoop=1;jettySize=auto;html=1;exitX=1;exitY=0.5;exitDx=0;exitDy=0;entryX=0;entryY=0.5;entryDx=0;entryDy=0;" parent="1" source="IQwHB2YpEbQMh792aqkD-74" target="IQwHB2YpEbQMh792aqkD-75" edge="1">
          <mxGeometry relative="1" as="geometry" />
        </mxCell>
        <mxCell id="IQwHB2YpEbQMh792aqkD-74" value="da li je dobar&lt;div&gt;pritisak u gumam&lt;/div&gt;" style="rhombus;whiteSpace=wrap;html=1;" parent="1" vertex="1">
          <mxGeometry x="3580" y="-600" width="100" height="100" as="geometry" />
        </mxCell>
        <mxCell id="IQwHB2YpEbQMh792aqkD-86" style="edgeStyle=orthogonalEdgeStyle;rounded=0;orthogonalLoop=1;jettySize=auto;html=1;exitX=1;exitY=0.5;exitDx=0;exitDy=0;entryX=0;entryY=0.5;entryDx=0;entryDy=0;" parent="1" source="IQwHB2YpEbQMh792aqkD-75" target="IQwHB2YpEbQMh792aqkD-76" edge="1">
          <mxGeometry relative="1" as="geometry" />
        </mxCell>
        <mxCell id="IQwHB2YpEbQMh792aqkD-75" value="da li radi klima" style="rhombus;whiteSpace=wrap;html=1;" parent="1" vertex="1">
          <mxGeometry x="3720" y="-600" width="100" height="100" as="geometry" />
        </mxCell>
        <mxCell id="IQwHB2YpEbQMh792aqkD-87" style="edgeStyle=orthogonalEdgeStyle;rounded=0;orthogonalLoop=1;jettySize=auto;html=1;exitX=1;exitY=0.5;exitDx=0;exitDy=0;entryX=0;entryY=0.5;entryDx=0;entryDy=0;" parent="1" source="IQwHB2YpEbQMh792aqkD-76" target="IQwHB2YpEbQMh792aqkD-77" edge="1">
          <mxGeometry relative="1" as="geometry" />
        </mxCell>
        <mxCell id="IQwHB2YpEbQMh792aqkD-76" value="da li pali" style="rhombus;whiteSpace=wrap;html=1;" parent="1" vertex="1">
          <mxGeometry x="3860" y="-600" width="100" height="100" as="geometry" />
        </mxCell>
        <mxCell id="IQwHB2YpEbQMh792aqkD-88" style="edgeStyle=orthogonalEdgeStyle;rounded=0;orthogonalLoop=1;jettySize=auto;html=1;exitX=1;exitY=0.5;exitDx=0;exitDy=0;entryX=0;entryY=0.5;entryDx=0;entryDy=0;" parent="1" source="IQwHB2YpEbQMh792aqkD-77" target="IQwHB2YpEbQMh792aqkD-78" edge="1">
          <mxGeometry relative="1" as="geometry" />
        </mxCell>
        <mxCell id="IQwHB2YpEbQMh792aqkD-77" value="da li radi signalizacija" style="rhombus;whiteSpace=wrap;html=1;" parent="1" vertex="1">
          <mxGeometry x="4000" y="-600" width="100" height="100" as="geometry" />
        </mxCell>
        <mxCell id="IQwHB2YpEbQMh792aqkD-89" style="edgeStyle=orthogonalEdgeStyle;rounded=0;orthogonalLoop=1;jettySize=auto;html=1;exitX=1;exitY=0.5;exitDx=0;exitDy=0;entryX=0;entryY=0.5;entryDx=0;entryDy=0;" parent="1" source="IQwHB2YpEbQMh792aqkD-78" target="IQwHB2YpEbQMh792aqkD-79" edge="1">
          <mxGeometry relative="1" as="geometry" />
        </mxCell>
        <mxCell id="IQwHB2YpEbQMh792aqkD-78" value="da li je&amp;nbsp;&lt;span style=&quot;background-color: initial;&quot;&gt;naduvao vazduh&lt;/span&gt;" style="rhombus;whiteSpace=wrap;html=1;" parent="1" vertex="1">
          <mxGeometry x="4140" y="-600" width="100" height="100" as="geometry" />
        </mxCell>
        <mxCell id="IQwHB2YpEbQMh792aqkD-79" value="kamion spreman" style="ellipse;whiteSpace=wrap;html=1;" parent="1" vertex="1">
          <mxGeometry x="4285" y="-590" width="120" height="80" as="geometry" />
        </mxCell>
        <mxCell id="IQwHB2YpEbQMh792aqkD-94" style="edgeStyle=orthogonalEdgeStyle;rounded=0;orthogonalLoop=1;jettySize=auto;html=1;exitX=0.5;exitY=1;exitDx=0;exitDy=0;entryX=0.5;entryY=0;entryDx=0;entryDy=0;" parent="1" source="IQwHB2YpEbQMh792aqkD-90" target="IQwHB2YpEbQMh792aqkD-92" edge="1">
          <mxGeometry relative="1" as="geometry" />
        </mxCell>
        <mxCell id="IQwHB2YpEbQMh792aqkD-90" value="sipaj gorivo" style="rounded=1;whiteSpace=wrap;html=1;" parent="1" vertex="1">
          <mxGeometry x="3300" y="-440" width="90" height="45" as="geometry" />
        </mxCell>
        <mxCell id="nbfr8xlKrn3ljvIZ1F1--5" style="edgeStyle=orthogonalEdgeStyle;rounded=0;orthogonalLoop=1;jettySize=auto;html=1;exitX=0.5;exitY=1;exitDx=0;exitDy=0;entryX=0.5;entryY=0;entryDx=0;entryDy=0;" edge="1" parent="1" source="IQwHB2YpEbQMh792aqkD-91" target="IQwHB2YpEbQMh792aqkD-99">
          <mxGeometry relative="1" as="geometry" />
        </mxCell>
        <mxCell id="IQwHB2YpEbQMh792aqkD-91" value="sipaj ulja" style="rounded=1;whiteSpace=wrap;html=1;" parent="1" vertex="1">
          <mxGeometry x="3440" y="-440" width="90" height="45" as="geometry" />
        </mxCell>
        <mxCell id="IQwHB2YpEbQMh792aqkD-95" style="edgeStyle=orthogonalEdgeStyle;rounded=0;orthogonalLoop=1;jettySize=auto;html=1;exitX=0;exitY=0.5;exitDx=0;exitDy=0;entryX=0;entryY=0.5;entryDx=0;entryDy=0;fillColor=#f8cecc;strokeColor=#b85450;" parent="1" source="IQwHB2YpEbQMh792aqkD-92" target="IQwHB2YpEbQMh792aqkD-90" edge="1">
          <mxGeometry relative="1" as="geometry" />
        </mxCell>
        <mxCell id="IQwHB2YpEbQMh792aqkD-98" style="edgeStyle=orthogonalEdgeStyle;rounded=0;orthogonalLoop=1;jettySize=auto;html=1;exitX=0.5;exitY=1;exitDx=0;exitDy=0;entryX=0.5;entryY=0;entryDx=0;entryDy=0;" parent="1" source="IQwHB2YpEbQMh792aqkD-92" target="IQwHB2YpEbQMh792aqkD-96" edge="1">
          <mxGeometry relative="1" as="geometry" />
        </mxCell>
        <mxCell id="IQwHB2YpEbQMh792aqkD-92" value="da li je pun rezervoar" style="rhombus;whiteSpace=wrap;html=1;" parent="1" vertex="1">
          <mxGeometry x="3305" y="-350" width="80" height="80" as="geometry" />
        </mxCell>
        <mxCell id="IQwHB2YpEbQMh792aqkD-97" style="edgeStyle=orthogonalEdgeStyle;rounded=0;orthogonalLoop=1;jettySize=auto;html=1;exitX=0;exitY=0.5;exitDx=0;exitDy=0;" parent="1" source="IQwHB2YpEbQMh792aqkD-96" edge="1">
          <mxGeometry relative="1" as="geometry">
            <mxPoint x="3260" y="-550" as="targetPoint" />
          </mxGeometry>
        </mxCell>
        <mxCell id="IQwHB2YpEbQMh792aqkD-96" value="rezervoar&lt;div&gt;pun&lt;/div&gt;" style="ellipse;whiteSpace=wrap;html=1;" parent="1" vertex="1">
          <mxGeometry x="3300" y="-240" width="90" height="60" as="geometry" />
        </mxCell>
        <mxCell id="nbfr8xlKrn3ljvIZ1F1--2" style="edgeStyle=orthogonalEdgeStyle;rounded=0;orthogonalLoop=1;jettySize=auto;html=1;exitX=0;exitY=0.5;exitDx=0;exitDy=0;entryX=0;entryY=0.25;entryDx=0;entryDy=0;fillColor=#f8cecc;strokeColor=#b85450;" edge="1" parent="1" source="IQwHB2YpEbQMh792aqkD-99" target="IQwHB2YpEbQMh792aqkD-91">
          <mxGeometry relative="1" as="geometry" />
        </mxCell>
        <mxCell id="nbfr8xlKrn3ljvIZ1F1--6" style="edgeStyle=orthogonalEdgeStyle;rounded=0;orthogonalLoop=1;jettySize=auto;html=1;exitX=0.5;exitY=1;exitDx=0;exitDy=0;entryX=0.5;entryY=0;entryDx=0;entryDy=0;" edge="1" parent="1" source="IQwHB2YpEbQMh792aqkD-99" target="IQwHB2YpEbQMh792aqkD-100">
          <mxGeometry relative="1" as="geometry" />
        </mxCell>
        <mxCell id="IQwHB2YpEbQMh792aqkD-99" value="da li je nivo na MAX" style="rhombus;whiteSpace=wrap;html=1;" parent="1" vertex="1">
          <mxGeometry x="3445" y="-350" width="80" height="80" as="geometry" />
        </mxCell>
        <mxCell id="nbfr8xlKrn3ljvIZ1F1--3" style="edgeStyle=orthogonalEdgeStyle;rounded=0;orthogonalLoop=1;jettySize=auto;html=1;exitX=0;exitY=0.5;exitDx=0;exitDy=0;" edge="1" parent="1" source="IQwHB2YpEbQMh792aqkD-100">
          <mxGeometry relative="1" as="geometry">
            <mxPoint x="3410" y="-550" as="targetPoint" />
          </mxGeometry>
        </mxCell>
        <mxCell id="IQwHB2YpEbQMh792aqkD-100" value="rezervoar&lt;div&gt;pun&lt;/div&gt;" style="ellipse;whiteSpace=wrap;html=1;" parent="1" vertex="1">
          <mxGeometry x="3440" y="-240" width="90" height="60" as="geometry" />
        </mxCell>
      </root>
    </mxGraphModel>
  </diagram>
</mxfile>
